<svg width="22" height="23" viewBox="0 0 22 23" fill="none" xmlns="http://www.w3.org/2000/svg">
<path fill-rule="evenodd" clip-rule="evenodd" d="M2.71241 9.67316C2.5384 4.79526 6.24536 0.692601 11.0008 0.5C15.7562 0.692601 19.4632 4.79526 19.2892 9.67316C19.2892 11.6992 21.4355 13.6729 21.4984 15.7035C21.4984 15.7322 21.4984 15.7609 21.4984 15.7896C21.5449 17.0906 20.556 18.1847 19.2877 18.2356H14.5C14.5045 19.2324 14.1381 20.1936 13.4756 20.9231C12.8386 21.6326 11.9411 22.0362 11.0008 22.0362C10.0604 22.0362 9.16305 21.6326 8.52602 20.9231C7.86347 20.1936 7.49711 19.2324 7.50155 18.2356H2.71241C1.44407 18.1847 0.455128 17.0906 0.501571 15.7896C0.501571 15.7609 0.501571 15.7322 0.501571 15.7035C0.566074 13.679 2.71241 11.7007 2.71241 9.67316Z" stroke="#777676" stroke-linecap="round" stroke-linejoin="round"/>
<rect x="6.17654" y="17.9448" width="9.56851" height="0.276902" fill="#020202" stroke="#777676" stroke-width="0.276902"/>
</svg>
