<svg width="6" height="9" viewBox="0 0 6 9" fill="none" xmlns="http://www.w3.org/2000/svg">
<path d="M3.75239 0.758234V0H1.3176V0.758234H0V8.3543H1.84586V6.98367H3.22388V8.3543H5.07V0.758234H3.75239ZM1.1738 6.10052H0.629477V5.21583H1.1738V6.10052ZM1.1738 4.31381H0.629477V3.42911H1.1738V4.31381ZM1.1738 2.5276H0.629477V1.64317H1.1738V2.5276ZM2.26271 6.10052H1.71839V5.21583H2.26271V6.10052ZM2.26271 4.31381H1.71839V3.42911H2.26271V4.31381ZM2.26271 2.5276H1.71839V1.64317H2.26271V2.5276ZM3.35161 6.10052H2.80729V5.21583H3.35161V6.10052ZM3.35161 4.31381H2.80729V3.42911H3.35161V4.31381ZM3.35161 2.5276H2.80729V1.64317H3.35161V2.5276ZM4.44051 6.10052H3.89593V5.21583H4.44051V6.10052ZM4.44051 4.31381H3.89593V3.42911H4.44051V4.31381ZM4.44051 2.5276H3.89593V1.64317H4.44051V2.5276Z" fill="black"/>
</svg>
