<svg width="16" height="16" viewBox="0 0 16 16" fill="none" xmlns="http://www.w3.org/2000/svg">
<path d="M12.207 11.0977C12.207 11.5061 11.876 11.8372 11.4675 11.8372C11.0591 11.8372 10.728 11.5061 10.728 11.0977C10.728 10.6892 11.0591 10.3582 11.4675 10.3582C11.876 10.3582 12.207 10.6892 12.207 11.0977Z" fill="#1C274C"/>
<path d="M9.249 14.7954H6.291C3.50217 14.7954 2.10776 14.7954 1.24138 13.929C0.375 13.0627 0.375 11.6682 0.375 8.87937V7.40037C0.375 4.61154 0.375 3.21713 1.24138 2.35075C2.10776 1.48437 3.50217 1.48438 6.291 1.48438H9.249C12.0378 1.48438 13.4323 1.48437 14.2986 2.35075C15.165 3.21713 15.165 4.61154 15.165 7.40037V8.87937C15.165 11.6682 15.165 13.0627 14.2986 13.929C13.8156 14.412 13.1684 14.6257 12.207 14.7203" stroke="#1C274C" stroke-width="0.75" stroke-linecap="round"/>
<path d="M4.07251 1.48425V0.375" stroke="#1C274C" stroke-width="0.75" stroke-linecap="round"/>
<path d="M11.4674 1.48425V0.375" stroke="#1C274C" stroke-width="0.75" stroke-linecap="round"/>
<path d="M14.7953 5.18188H11.1902H6.84563M0.375 5.18188H3.24056" stroke="#1C274C" stroke-width="0.75" stroke-linecap="round"/>
<path d="M12.207 8.13965C12.207 8.54807 11.876 8.87915 11.4675 8.87915C11.0591 8.87915 10.728 8.54807 10.728 8.13965C10.728 7.73122 11.0591 7.40015 11.4675 7.40015C11.876 7.40015 12.207 7.73122 12.207 8.13965Z" fill="#1C274C"/>
<path d="M8.50927 11.0977C8.50927 11.5061 8.1782 11.8372 7.76977 11.8372C7.36135 11.8372 7.03027 11.5061 7.03027 11.0977C7.03027 10.6892 7.36135 10.3582 7.76977 10.3582C8.1782 10.3582 8.50927 10.6892 8.50927 11.0977Z" fill="#1C274C"/>
<path d="M8.50927 8.13965C8.50927 8.54807 8.1782 8.87915 7.76977 8.87915C7.36135 8.87915 7.03027 8.54807 7.03027 8.13965C7.03027 7.73122 7.36135 7.40015 7.76977 7.40015C8.1782 7.40015 8.50927 7.73122 8.50927 8.13965Z" fill="#1C274C"/>
<path d="M4.81237 11.0977C4.81237 11.5061 4.48129 11.8372 4.07287 11.8372C3.66446 11.8372 3.33337 11.5061 3.33337 11.0977C3.33337 10.6892 3.66446 10.3582 4.07287 10.3582C4.48129 10.3582 4.81237 10.6892 4.81237 11.0977Z" fill="#1C274C"/>
<path d="M4.81237 8.13965C4.81237 8.54807 4.48129 8.87915 4.07287 8.87915C3.66446 8.87915 3.33337 8.54807 3.33337 8.13965C3.33337 7.73122 3.66446 7.40015 4.07287 7.40015C4.48129 7.40015 4.81237 7.73122 4.81237 8.13965Z" fill="#1C274C"/>
</svg>
