<svg width="36" height="36" viewBox="0 0 36 36" fill="none" xmlns="http://www.w3.org/2000/svg">
<path d="M18 36C27.9411 36 36 27.9411 36 18C36 8.05887 27.9411 0 18 0C8.05887 0 0 8.05887 0 18C0 27.9411 8.05887 36 18 36Z" fill="#FDD03C"/>
<path d="M18.9002 16.2H17.1002C16.8615 16.2 16.6326 16.1052 16.4638 15.9364C16.2951 15.7676 16.2002 15.5387 16.2002 15.3C16.2002 15.0613 16.2951 14.8324 16.4638 14.6636C16.6326 14.4948 16.8615 14.4 17.1002 14.4H21.6002C22.0776 14.4 22.5355 14.2104 22.873 13.8728C23.2106 13.5352 23.4002 13.0774 23.4002 12.6C23.4002 12.1226 23.2106 11.6648 22.873 11.3272C22.5355 10.9896 22.0776 10.8 21.6002 10.8H19.8002C19.8002 10.3226 19.6106 9.86477 19.273 9.52721C18.9355 9.18964 18.4776 9 18.0002 9C17.5228 9 17.065 9.18964 16.7274 9.52721C16.3899 9.86477 16.2002 10.3226 16.2002 10.8V10.89C15.1066 11.1121 14.1345 11.7326 13.4726 12.6311C12.8107 13.5296 12.5063 14.6419 12.6185 15.7522C12.7306 16.8626 13.2514 17.8916 14.0795 18.6396C14.9077 19.3875 15.9843 19.8011 17.1002 19.8H18.9002C19.1389 19.8 19.3679 19.8948 19.5366 20.0636C19.7054 20.2324 19.8002 20.4613 19.8002 20.7C19.8002 20.9387 19.7054 21.1676 19.5366 21.3364C19.3679 21.5052 19.1389 21.6 18.9002 21.6H14.4002C13.9228 21.6 13.465 21.7896 13.1274 22.1272C12.7899 22.4648 12.6002 22.9226 12.6002 23.4C12.6002 23.8774 12.7899 24.3352 13.1274 24.6728C13.465 25.0104 13.9228 25.2 14.4002 25.2H16.2002C16.2002 25.6774 16.3899 26.1352 16.7274 26.4728C17.065 26.8104 17.5228 27 18.0002 27C18.4776 27 18.9355 26.8104 19.273 26.4728C19.6106 26.1352 19.8002 25.6774 19.8002 25.2C20.9937 25.0807 22.0909 24.4921 22.8504 23.5638C23.6099 22.6355 23.9696 21.4435 23.8502 20.25C23.7309 19.0565 23.1423 17.9593 22.214 17.1998C21.2857 16.4403 20.0937 16.0807 18.9002 16.2Z" fill="white"/>
</svg>
