<svg xmlns="http://www.w3.org/2000/svg" xmlns:xlink="http://www.w3.org/1999/xlink" width="2000" zoomAndPan="magnify" viewBox="0 0 1500 1499.999933" height="2000" preserveAspectRatio="xMidYMid meet" version="1.0"><defs><clipPath id="38a0255ef8"><path d="M 258.699219 258.699219 L 1241.300781 258.699219 L 1241.300781 1241.300781 L 258.699219 1241.300781 Z M 258.699219 258.699219 " clip-rule="nonzero"/></clipPath><clipPath id="c3ca946f8f"><path d="M 750 258.699219 C 478.660156 258.699219 258.699219 478.660156 258.699219 750 C 258.699219 1021.339844 478.660156 1241.300781 750 1241.300781 C 1021.339844 1241.300781 1241.300781 1021.339844 1241.300781 750 C 1241.300781 478.660156 1021.339844 258.699219 750 258.699219 Z M 750 258.699219 " clip-rule="nonzero"/></clipPath><clipPath id="af952b7ad6"><path d="M 0.699219 0.699219 L 983.300781 0.699219 L 983.300781 983.300781 L 0.699219 983.300781 Z M 0.699219 0.699219 " clip-rule="nonzero"/></clipPath><clipPath id="39873ee862"><path d="M 492 0.699219 C 220.660156 0.699219 0.699219 220.660156 0.699219 492 C 0.699219 763.339844 220.660156 983.300781 492 983.300781 C 763.339844 983.300781 983.300781 763.339844 983.300781 492 C 983.300781 220.660156 763.339844 0.699219 492 0.699219 Z M 492 0.699219 " clip-rule="nonzero"/></clipPath><clipPath id="9c08c41ad2"><rect x="0" width="984" y="0" height="984"/></clipPath><clipPath id="a84b553692"><path d="M 418 522 L 931 522 L 931 978.363281 L 418 978.363281 Z M 418 522 " clip-rule="nonzero"/></clipPath><clipPath id="0ba314953c"><path d="M 936 671 L 987 671 L 987 791 L 936 791 Z M 936 671 " clip-rule="nonzero"/></clipPath><clipPath id="7fdf7db3f9"><path d="M 1000.835938 582.203125 L 1161.996094 690.648438 L 1053.550781 851.808594 L 892.390625 743.363281 Z M 1000.835938 582.203125 " clip-rule="nonzero"/></clipPath><clipPath id="00c4bb7c03"><path d="M 1000.835938 582.203125 L 1161.996094 690.648438 L 1053.550781 851.808594 L 892.390625 743.363281 Z M 1000.835938 582.203125 " clip-rule="nonzero"/></clipPath><clipPath id="f5a4e75e8b"><path d="M 965 629 L 1039 629 L 1039 820 L 965 820 Z M 965 629 " clip-rule="nonzero"/></clipPath><clipPath id="14887e40cf"><path d="M 1000.835938 582.203125 L 1161.996094 690.648438 L 1053.550781 851.808594 L 892.390625 743.363281 Z M 1000.835938 582.203125 " clip-rule="nonzero"/></clipPath><clipPath id="a6bd2fe780"><path d="M 1000.835938 582.203125 L 1161.996094 690.648438 L 1053.550781 851.808594 L 892.390625 743.363281 Z M 1000.835938 582.203125 " clip-rule="nonzero"/></clipPath><clipPath id="e9db23ad56"><path d="M 994 586 L 1090 586 L 1090 848 L 994 848 Z M 994 586 " clip-rule="nonzero"/></clipPath><clipPath id="8e340b3a6c"><path d="M 1000.835938 582.203125 L 1161.996094 690.648438 L 1053.550781 851.808594 L 892.390625 743.363281 Z M 1000.835938 582.203125 " clip-rule="nonzero"/></clipPath><clipPath id="3a63ee55f7"><path d="M 1000.835938 582.203125 L 1161.996094 690.648438 L 1053.550781 851.808594 L 892.390625 743.363281 Z M 1000.835938 582.203125 " clip-rule="nonzero"/></clipPath></defs><g clip-path="url(#38a0255ef8)"><g clip-path="url(#c3ca946f8f)"><g transform="matrix(1, 0, 0, 1, 258, 258)"><g clip-path="url(#9c08c41ad2)"><g clip-path="url(#af952b7ad6)"><g clip-path="url(#39873ee862)"><path fill="#f53131" d="M 0.699219 0.699219 L 983.300781 0.699219 L 983.300781 983.300781 L 0.699219 983.300781 Z M 0.699219 0.699219 " fill-opacity="1" fill-rule="nonzero"/></g></g></g></g></g></g><g clip-path="url(#a84b553692)"><path fill="#ffffff" d="M 654 667.175781 C 646.855469 664.902344 641.492188 663.175781 636.113281 661.496094 C 634.421875 660.964844 632.648438 660.671875 631.003906 660.03125 C 626.929688 658.449219 625.292969 654.8125 628.269531 651.746094 C 631.609375 648.296875 629.96875 646.222656 627.925781 643.6875 C 624.371094 639.269531 620.9375 634.730469 617.046875 630.605469 C 615.792969 629.339844 614.847656 627.875 614.210938 626.210938 C 613.570312 624.550781 613.289062 622.832031 613.371094 621.050781 C 613.511719 605 614.617188 609.476562 601.921875 601.511719 C 599.523438 600.011719 596.9375 598.765625 594.609375 597.1875 C 592.28125 595.613281 591.972656 593.097656 592.390625 590.523438 C 592.777344 588.082031 594.589844 586.941406 596.78125 586.523438 C 601.3125 585.652344 605.890625 585.035156 610.410156 584.144531 C 614.773438 583.285156 615.542969 582.34375 615.78125 577.699219 C 616.484375 563.875 617.125 550.050781 617.785156 536.226562 C 617.917969 533.394531 617.929688 530.539062 618.199219 527.71875 C 618.601562 523.53125 622.410156 521.625 625.871094 523.9375 C 627.277344 524.996094 628.492188 526.242188 629.515625 527.675781 C 633.027344 532.117188 636.429688 536.652344 639.910156 541.117188 C 641.375 542.984375 643.207031 543.644531 645.515625 542.597656 C 649.066406 540.984375 652.605469 539.324219 656.230469 537.890625 C 661.164062 535.945312 663.96875 537.527344 664.273438 542.660156 C 664.597656 547.96875 664.460938 553.304688 664.496094 558.632812 C 664.496094 561.828125 664.691406 565.042969 664.429688 568.210938 C 663.992188 573.414062 665.363281 577.660156 668.644531 581.914062 C 673.371094 588.070312 677.152344 594.957031 681.390625 601.5 C 682.117188 602.613281 683.121094 603.542969 684.996094 605.722656 C 685.164062 603.113281 685.449219 601.890625 685.28125 600.738281 C 684.570312 595.832031 683.46875 590.964844 682.996094 586.039062 C 682.75 583.015625 682.058594 580.09375 680.929688 577.28125 C 679.800781 574.464844 678.28125 571.878906 676.367188 569.519531 C 674.917969 567.714844 673.75 565.746094 672.863281 563.605469 C 671.972656 561.464844 671.40625 559.246094 671.15625 556.945312 C 670.59375 552.734375 669.421875 548.585938 669.054688 544.355469 C 668.875 541.539062 669.164062 538.773438 669.929688 536.058594 C 670.746094 532.988281 674.667969 532.320312 676.78125 534.8125 C 678.890625 537.304688 680.472656 539.9375 682.210938 542.398438 C 684.925781 542.398438 685.144531 540.386719 685.550781 538.867188 C 686.171875 536.476562 686.355469 533.964844 686.933594 531.554688 C 687.460938 529.332031 688.875 527.601562 691.292969 527.496094 C 693.710938 527.386719 695.328125 528.859375 696.007812 531.074219 C 696.632812 533.101562 696.792969 535.261719 697.347656 537.304688 C 697.800781 538.972656 698.539062 540.5625 699.339844 542.722656 C 701.582031 541.546875 703.277344 540.386719 705.152344 539.726562 C 710.136719 537.984375 713.871094 540.511719 713.691406 545.582031 C 713.636719 549.148438 713.261719 552.675781 712.558594 556.171875 C 712.21875 557.550781 712.035156 558.949219 712.003906 560.367188 C 711.976562 561.785156 712.105469 563.191406 712.390625 564.582031 C 712.675781 565.972656 713.109375 567.3125 713.691406 568.605469 C 714.273438 569.902344 714.992188 571.113281 715.847656 572.25 C 718.960938 576.550781 721.769531 581.0625 724.773438 585.441406 C 734.78125 600.035156 744.867188 614.59375 754.839844 629.210938 C 761.625 639.175781 768.363281 649.144531 774.929688 659.234375 C 776.878906 662.21875 779.164062 663.714844 782.738281 663.6875 C 786.707031 663.65625 789.355469 662.191406 791.117188 658.457031 C 795.039062 650.132812 799.375 642 803.351562 633.695312 C 804.597656 631.035156 805.980469 628.714844 808.875 627.605469 C 812.769531 626.109375 816.417969 628.171875 816.351562 632.183594 C 816.25 638.1875 816.179688 644.15625 814.105469 650.027344 C 812.402344 654.867188 811.035156 660.027344 812.332031 665.601562 C 816.210938 663.332031 816.613281 659.515625 817.734375 656.300781 C 822.316406 643.21875 828.320312 630.8125 834.742188 618.574219 C 835.375 617.308594 836.160156 616.148438 837.105469 615.097656 C 838.460938 613.644531 842.710938 612.933594 844.050781 614.257812 C 845.238281 615.539062 845.878906 617.054688 845.980469 618.804688 C 846.25 624.671875 845.867188 630.496094 844.828125 636.277344 C 843.792969 642.058594 842.128906 647.652344 839.839844 653.0625 C 838.839844 655.703125 838.039062 658.402344 837.433594 661.160156 C 837.363281 661.886719 837.597656 662.492188 838.136719 662.984375 C 838.769531 663.257812 839.394531 663.238281 840.007812 662.929688 C 840.949219 662.4375 841.828125 661.859375 842.652344 661.191406 C 844.914062 659.488281 847.109375 657.683594 849.425781 656.058594 C 851.050781 654.957031 852.460938 653.628906 853.65625 652.074219 C 854.851562 650.519531 855.773438 648.816406 856.421875 646.964844 C 858.320312 641.632812 860.617188 636.449219 862.773438 631.203125 C 864.398438 627.242188 865.988281 626.222656 869.972656 626.546875 C 872.347656 626.730469 874.226562 628.175781 874.164062 630.488281 C 873.933594 638.636719 873.898438 646.832031 872.851562 654.886719 C 872.433594 658.105469 870.054688 661.425781 867.757812 663.96875 C 861.121094 671.324219 854.054688 678.292969 847.203125 685.453125 C 846.484375 686.238281 845.820312 687.070312 845.214844 687.941406 C 844.085938 689.476562 844.636719 691.417969 846.546875 692.246094 C 848.820312 693.230469 851.15625 694.085938 853.472656 694.976562 L 919.019531 720.078125 C 919.6875 720.332031 920.402344 720.457031 921.039062 720.761719 C 923.882812 722.121094 927.222656 722.980469 929.410156 725.046875 C 932.15625 727.660156 928.675781 731.046875 929.148438 734.15625 C 929.199219 734.496094 929.046875 734.863281 929.085938 735.214844 C 929.96875 743.105469 927.125 748.246094 918.796875 749.695312 C 917.84375 749.859375 916.523438 751.527344 916.453125 752.566406 C 916.199219 756.773438 913.339844 757.792969 910.039062 758.355469 C 900.953125 759.898438 891.855469 761.417969 882.75 762.90625 C 876.800781 763.890625 870.820312 764.714844 864.898438 765.855469 C 857.914062 767.191406 857.34375 767.882812 857.285156 774.898438 C 857.191406 788.035156 857.25 801.175781 857.242188 814.3125 C 857.242188 818.929688 856.695312 823.65625 857.347656 828.148438 C 858.835938 838.4375 854.578125 846.835938 849.539062 855.089844 C 841.632812 868.09375 833.847656 881.160156 825.960938 894.175781 C 818.992188 905.671875 811.980469 917.148438 804.917969 928.601562 C 803.050781 931.628906 803.207031 932.4375 806.632812 934.207031 C 813.234375 937.652344 819.949219 940.871094 826.515625 944.386719 C 830.917969 946.734375 831.851562 948.945312 829.007812 952.949219 C 823.300781 961.046875 817.023438 968.703125 810.910156 976.488281 C 809.4375 978.355469 807.21875 978.355469 805.042969 978.15625 C 785.273438 976.234375 765.511719 974.246094 745.726562 972.410156 C 734.777344 971.394531 723.800781 970.644531 712.832031 969.761719 C 702.933594 968.964844 693.03125 968.136719 683.132812 967.355469 C 680.640625 967.164062 678.148438 967.042969 675.660156 966.988281 C 673.285156 966.941406 671.984375 968.128906 670.929688 970.367188 C 668.183594 976.195312 666.949219 976.894531 661.324219 975.804688 C 654.367188 974.457031 647.492188 972.652344 640.535156 971.273438 C 637.085938 970.542969 633.597656 970.167969 630.070312 970.152344 C 608.058594 970.433594 586.050781 970.949219 564.042969 971.28125 C 549.132812 971.503906 534.214844 971.550781 519.300781 971.691406 C 491.964844 971.953125 464.625 972.21875 437.28125 972.488281 C 430.324219 972.550781 429.246094 971.355469 427.425781 964.148438 C 423.171875 947.238281 421.535156 929.890625 418.644531 912.78125 C 417.878906 908.21875 419.265625 905.261719 422.691406 902.71875 C 431.542969 896.191406 440.359375 889.640625 449.195312 883.074219 C 468.582031 868.75 488.039062 854.488281 507.292969 839.972656 C 511.21875 837.003906 515.128906 835.546875 519.992188 835.609375 C 546.261719 836.132812 572.535156 836.382812 598.800781 837.03125 C 601.960938 837.160156 605.09375 836.902344 608.191406 836.265625 C 611.292969 835.625 614.265625 834.621094 617.121094 833.25 C 638.234375 823.191406 659.601562 813.648438 680.964844 804.054688 C 683.589844 803 686.316406 802.378906 689.136719 802.1875 C 702.902344 800.785156 716.6875 799.59375 730.453125 798.226562 C 737.871094 797.488281 745.277344 796.660156 752.660156 795.652344 C 757.175781 795.03125 757.523438 794.523438 758.179688 790.570312 C 761.714844 769.230469 765.246094 747.890625 768.769531 726.550781 C 769 725.148438 768.984375 723.703125 769.308594 722.328125 C 770.554688 717.101562 768.511719 713.738281 763.953125 710.984375 C 747.570312 701.09375 731.292969 691.027344 715.117188 680.785156 C 713.476562 679.738281 711.714844 678.957031 709.835938 678.449219 C 707.953125 677.9375 706.039062 677.722656 704.09375 677.796875 C 689.535156 677.988281 674.972656 677.925781 660.417969 677.921875 C 657.582031 677.921875 654.671875 678.0625 651.9375 677.480469 C 650.5 677.171875 648.863281 675.660156 648.203125 674.269531 C 647.449219 672.625 648.375 670.859375 650.125 669.824219 C 651.011719 669.300781 651.839844 668.675781 654 667.175781 Z M 835.507812 637.671875 C 832.101562 640.878906 830.132812 644.890625 828.746094 649.3125 C 827.5 653.355469 826.320312 657.507812 824.386719 661.253906 C 821.570312 666.765625 820.191406 673.441406 813.371094 676.132812 C 811.714844 676.792969 812.175781 678.699219 813.109375 679.695312 C 813.914062 680.566406 815.71875 681.621094 816.449219 681.273438 C 821.28125 678.953125 825.167969 675.910156 826.546875 670.058594 C 828.148438 663.207031 830.800781 656.625 832.707031 649.835938 C 833.839844 645.773438 834.40625 641.558594 835.230469 637.410156 C 835.617188 636.933594 835.980469 636.4375 836.3125 635.917969 C 836.394531 635.789062 836.183594 635.484375 836.109375 635.253906 C 835.925781 636.058594 835.714844 636.859375 835.507812 637.671875 Z M 702.941406 637.53125 L 702.722656 636.75 L 703.191406 637.296875 C 706.753906 646.128906 710.382812 654.929688 713.839844 663.800781 C 715.085938 667.046875 717.386719 667.800781 720.542969 667.605469 C 732.570312 666.851562 744.613281 666.242188 756.632812 665.4375 C 758.003906 665.34375 760.121094 665.949219 760.820312 663.113281 C 742.511719 654.527344 724.238281 645.984375 706.003906 637.484375 C 705.183594 637.085938 703.976562 637.496094 702.941406 637.53125 Z M 673.539062 876.359375 C 673 876.753906 672.125 877.039062 671.964844 877.554688 C 668.976562 886.972656 665.972656 896.398438 663.175781 905.878906 C 659.269531 919.082031 655.558594 932.351562 651.691406 945.574219 C 651.066406 947.59375 650.007812 949.46875 649.328125 951.472656 C 647.910156 955.710938 646.375 959.949219 646.4375 964.785156 C 650.730469 965.84375 654.441406 966.925781 658.230469 967.644531 C 662.316406 968.421875 664.183594 967.019531 664.253906 962.566406 C 664.503906 946.558594 668.96875 931.09375 670.070312 915.226562 C 670.976562 902.183594 673.910156 889.304688 673.285156 876.128906 C 673.644531 875.628906 673.972656 875.109375 674.277344 874.570312 C 674.34375 874.429688 674.121094 874.140625 674.027344 873.949219 Z M 791.484375 931.683594 C 780.023438 919.289062 769.683594 908.164062 759.386719 896.957031 C 737.835938 873.5 716.304688 850.023438 694.800781 826.523438 C 693.511719 825.128906 691.492188 824.398438 689.382812 823.089844 C 688.976562 825.339844 688.621094 826.710938 688.488281 828.074219 C 687.207031 842.195312 685.769531 856.289062 683.128906 870.238281 C 682.503906 873.351562 682.28125 876.566406 681.925781 879.734375 C 679.71875 899.449219 678.394531 919.269531 674.824219 938.824219 C 674.199219 942.3125 673.753906 945.84375 673.460938 949.367188 C 673.023438 954.65625 674.082031 955.527344 679.496094 954.65625 C 680.542969 954.488281 681.582031 954.238281 682.609375 954.035156 C 716.660156 947.1875 750.710938 940.335938 784.761719 933.476562 C 786.4375 933.15625 788.101562 932.605469 791.484375 931.679688 Z M 626.542969 957.351562 C 621.753906 952.195312 618.546875 948.410156 614.988281 944.976562 C 602.238281 932.679688 589.359375 920.515625 576.550781 908.277344 C 558.363281 890.894531 540.179688 873.503906 522.003906 856.109375 C 520.296875 854.492188 518.144531 853.34375 516.289062 852.035156 C 510.296875 856.703125 507.804688 863.160156 504.066406 868.6875 C 496.941406 879.242188 489.863281 889.832031 482.839844 900.453125 C 479.90625 904.875 477.007812 909.328125 474.191406 913.828125 C 473.121094 915.53125 473.929688 917.234375 475.960938 917.882812 C 476.972656 918.207031 478.03125 918.355469 479.074219 918.628906 C 521.929688 929.929688 564.785156 941.230469 607.640625 952.53125 C 613.382812 954.058594 619.167969 955.472656 626.542969 957.347656 Z M 799.632812 920.566406 C 806.320312 912.121094 841.789062 853.226562 848.953125 838.675781 C 840.648438 828.710938 832.289062 818.628906 823.867188 808.597656 C 818.636719 802.367188 813.277344 796.226562 808.046875 789.976562 C 805.972656 787.488281 803.855469 786.757812 800.640625 788.078125 C 792.121094 791.585938 783.460938 794.761719 774.867188 798.042969 C 773.214844 798.667969 771.546875 799.289062 769.933594 800.007812 C 767.652344 801.007812 766.867188 802.789062 767.441406 805.183594 C 767.859375 806.90625 768.292969 808.628906 768.769531 810.332031 C 773.007812 825.6875 777.40625 841 781.460938 856.425781 C 786.058594 873.898438 790.351562 891.445312 794.761719 908.96875 C 795.800781 913.054688 796.378906 917.328125 799.632812 920.558594 Z M 632.699219 951.085938 C 632.320312 947.8125 632.242188 946.105469 631.902344 944.460938 C 627.691406 924.011719 623.503906 903.546875 619.175781 883.117188 C 616.683594 871.34375 613.929688 859.636719 611.371094 847.882812 C 610.839844 845.457031 609.558594 844.144531 607.089844 844.03125 C 604.96875 843.949219 602.835938 843.9375 600.714844 843.917969 C 580.144531 843.734375 559.578125 843.546875 539.011719 843.367188 C 534.027344 843.308594 529.101562 843.035156 524.140625 842.96875 C 523.429688 843.066406 522.894531 843.425781 522.535156 844.050781 C 522.328125 844.707031 522.398438 845.328125 522.753906 845.917969 C 523.3125 846.835938 523.980469 847.667969 524.757812 848.410156 C 531.609375 855.09375 538.386719 861.816406 545.3125 868.40625 C 567.863281 889.871094 590.4375 911.308594 613.035156 932.71875 C 619.15625 938.484375 625.359375 944.21875 632.699219 951.082031 Z M 690.625 810.539062 C 719.003906 842.445312 747.851562 872.558594 775.898438 903.394531 C 779.015625 906.78125 782.234375 910.007812 785.441406 913.277344 C 785.589844 913.433594 786.066406 913.277344 787.035156 913.210938 C 786.140625 904.382812 783.847656 895.832031 781.324219 887.496094 C 775.886719 869.527344 772.105469 851.140625 766.847656 833.136719 C 764.269531 824.3125 761.867188 815.429688 759.375 806.566406 C 758.75 804.261719 757.324219 802.914062 754.820312 803.027344 C 753.046875 803.109375 751.269531 803.183594 749.515625 803.363281 C 733.320312 805.015625 717.0625 806.632812 700.855469 808.398438 C 697.785156 808.71875 694.761719 809.640625 690.621094 810.53125 Z M 642.203125 948.546875 C 643.648438 943.65625 644.695312 940.304688 645.617188 936.929688 C 646.757812 932.832031 647.691406 928.667969 648.949219 924.601562 C 652.9375 911.753906 657.152344 898.96875 661.035156 886.0625 C 665.394531 871.46875 669.5 856.789062 673.726562 842.144531 C 674.121094 840.785156 674.660156 839.464844 675.074219 838.109375 C 677.136719 831.332031 679.257812 824.574219 681.160156 817.753906 C 681.589844 816.21875 681.222656 814.457031 681.222656 812.003906 C 661.015625 821.105469 641.617188 829.804688 622.253906 838.589844 C 619.324219 839.914062 618.640625 841.285156 619.195312 844.566406 C 621.03125 855.40625 623.5 866.09375 626.046875 876.808594 C 631.085938 898.191406 635.046875 919.835938 639.539062 941.351562 C 639.910156 943.371094 640.914062 945.183594 642.203125 948.546875 Z M 440.695312 965.363281 L 613.414062 962.871094 C 610.378906 961.089844 607.148438 959.777344 603.726562 958.941406 C 576.367188 951.703125 548.992188 944.492188 521.605469 937.308594 C 505.164062 932.980469 488.699219 928.71875 472.28125 924.289062 C 469.558594 923.554688 467.613281 923.582031 465.941406 926.195312 C 457.972656 938.699219 449.875 951.117188 440.695312 965.34375 Z M 857.203125 759.8125 C 858.300781 759.710938 858.65625 759.699219 859.003906 759.644531 C 873.992188 757.121094 888.976562 754.585938 903.964844 752.039062 C 904.410156 751.976562 904.832031 751.839844 905.226562 751.621094 C 905.621094 751.402344 905.960938 751.121094 906.25 750.773438 C 906.535156 750.429688 906.753906 750.042969 906.894531 749.617188 C 907.039062 749.1875 907.101562 748.75 907.078125 748.300781 C 907.117188 744.800781 909.011719 743.191406 912.191406 742.695312 C 913.9375 742.410156 915.789062 742.402344 917.394531 741.765625 C 918.65625 741.242188 919.554688 740.351562 920.089844 739.09375 C 920.632812 737.46875 920.441406 735.605469 920.601562 733.84375 C 921.0625 728.773438 921.101562 728.710938 916.539062 726.953125 C 894.785156 718.5625 873.089844 710.023438 851.226562 701.914062 C 838.019531 697.019531 842.179688 697.359375 831.292969 704.78125 C 828.535156 706.648438 828.132812 708.375 829.511719 711.007812 C 835.105469 721.617188 840.710938 732.207031 846.328125 742.777344 C 848.820312 747.449219 851.3125 752.117188 854.023438 756.667969 C 854.882812 758.003906 856.371094 758.996094 857.203125 759.785156 Z M 777.753906 742.570312 C 780.203125 745.417969 781.835938 747.261719 783.410156 749.148438 C 790.210938 757.285156 796.996094 765.4375 803.765625 773.597656 C 806.042969 776.332031 808.539062 777.285156 812.132812 775.824219 C 822.292969 771.707031 832.589844 767.914062 842.777344 763.871094 C 846.410156 762.441406 847.039062 760.925781 845.234375 757.269531 C 841.003906 748.71875 836.550781 740.285156 832.152344 731.820312 C 829.871094 727.460938 827.40625 723.140625 825.21875 718.738281 C 821.917969 712.035156 819.675781 712.964844 815.597656 715.886719 C 803.246094 724.738281 790.785156 733.390625 777.753906 742.570312 Z M 691.25 960.808594 C 726.792969 963.84375 761.316406 966.800781 795.84375 969.707031 C 797.195312 969.824219 798.585938 969.398438 800.671875 969.144531 C 797.773438 959.707031 795.066406 950.664062 792.136719 941.683594 C 791.90625 940.964844 790.507812 940.324219 789.578125 940.21875 C 788.164062 940.121094 786.765625 940.242188 785.386719 940.574219 C 760.425781 945.554688 735.457031 950.476562 710.539062 955.679688 C 704.40625 956.929688 697.964844 957.265625 691.25 960.808594 Z M 760.582031 653.527344 C 759.640625 651.503906 759.15625 649.933594 758.273438 648.632812 C 743 626.082031 727.683594 603.558594 712.320312 581.0625 C 712.015625 580.621094 711.042969 580.640625 710.089844 580.351562 L 700.273438 625.742188 C 712.582031 632.929688 751.527344 650.976562 760.582031 653.527344 Z M 622.378906 619.601562 L 671.292969 602.078125 C 670.589844 600.140625 670.351562 598.726562 669.628906 597.632812 C 663.246094 587.914062 656.746094 578.277344 648.71875 569.792969 C 647.265625 568.261719 646.078125 566.46875 644.519531 565.078125 C 644.023438 564.628906 642.371094 564.75 641.835938 565.246094 C 640.832031 566.25 640.078125 567.414062 639.582031 568.742188 C 635.464844 578.871094 631.445312 589.042969 627.335938 599.167969 C 626.414062 601.449219 625.566406 603.867188 624.132812 605.808594 C 621.347656 609.597656 621.324219 613.578125 622.378906 619.601562 Z M 432.242188 905.148438 C 434.402344 906.226562 435.824219 907.203125 437.398438 907.640625 C 441.816406 908.949219 446.292969 910.039062 450.742188 911.222656 C 464.625 914.910156 464.5 914.835938 472.375 902.589844 C 480.246094 890.34375 488.339844 878.421875 496.28125 866.304688 C 498.773438 862.457031 501.125 858.484375 503.523438 854.558594 C 503.6875 854.308594 503.730469 854.042969 503.648438 853.753906 C 503.492188 853.488281 503.132812 853.332031 502.476562 852.847656 Z M 813.398438 783.636719 C 817.550781 790.121094 822.453125 795.167969 826.964844 800.5 C 833.566406 808.308594 840.210938 816.078125 846.894531 823.800781 C 847.445312 824.257812 848.066406 824.414062 848.765625 824.269531 C 849.25 824.128906 849.691406 823.402344 849.898438 822.835938 C 850.101562 822.15625 850.1875 821.460938 850.152344 820.753906 C 850.214844 805.183594 850.257812 789.609375 850.285156 774.039062 C 850.285156 772.6875 849.792969 771.335938 849.425781 769.441406 C 837.210938 773.714844 825.429688 778.03125 813.398438 783.636719 Z M 624.769531 626.945312 C 629.035156 634.261719 634.503906 639.726562 639.71875 645.382812 L 659.832031 646.628906 C 660.1875 646.628906 660.542969 646.628906 660.894531 646.589844 C 663.339844 646.539062 664.769531 645.34375 665.414062 642.957031 C 668.015625 633.371094 670.191406 623.699219 671.113281 613.789062 C 671.199219 612.875 670.488281 611.882812 669.992188 610.355469 C 654.917969 615.894531 639.742188 620.597656 624.769531 626.945312 Z M 722.519531 675.527344 C 723.917969 677.1875 724.273438 677.871094 724.835938 678.21875 C 739.457031 687.378906 754.09375 696.515625 768.75 705.625 C 771.300781 707.222656 772.996094 706.441406 772.835938 703.566406 C 772.328125 694.429688 771.707031 685.292969 770.964844 676.15625 C 770.730469 673.292969 768.859375 672.027344 765.753906 672.191406 C 754.128906 672.8125 742.511719 673.398438 730.871094 674.113281 C 728.492188 674.203125 726.136719 674.835938 722.519531 675.472656 Z M 435.136719 957.734375 C 444.582031 946.152344 455.03125 929.703125 458.464844 920.878906 C 453.355469 919.425781 448.355469 917.675781 443.210938 916.640625 C 438.226562 915.640625 433.488281 912.742188 427.5 914.027344 C 428.503906 928.175781 431.238281 941.6875 433.3125 955.277344 C 433.445312 956.15625 434.484375 956.890625 435.136719 957.734375 Z M 805.132812 651.710938 L 803.886719 651.566406 C 801.058594 656.429688 798.019531 661.183594 795.464844 666.1875 C 793.566406 669.921875 790.78125 671.167969 786.875 670.925781 C 785.109375 670.792969 783.34375 670.820312 781.582031 671 C 779.585938 671.238281 778.324219 672.582031 778.464844 674.574219 C 779.019531 683.378906 779.710938 692.179688 780.390625 700.972656 C 780.421875 701.144531 780.472656 701.3125 780.539062 701.472656 C 780.609375 701.632812 780.695312 701.78125 780.800781 701.921875 C 780.90625 702.058594 781.027344 702.183594 781.160156 702.296875 C 781.296875 702.40625 781.441406 702.5 781.597656 702.578125 C 781.753906 702.652344 781.917969 702.710938 782.089844 702.75 C 782.257812 702.785156 782.429688 702.804688 782.605469 702.800781 C 782.78125 702.796875 782.953125 702.773438 783.121094 702.730469 C 783.289062 702.6875 783.449219 702.625 783.605469 702.542969 C 790.167969 698.402344 796.746094 694.273438 803.214844 689.96875 C 804.839844 688.890625 807.386719 688.460938 807.386719 685.433594 C 806.140625 683.183594 804.789062 680.710938 803.34375 678.3125 C 801.414062 675.097656 801.195312 672.023438 802.273438 668.261719 C 803.730469 662.902344 804.191406 657.242188 805.105469 651.710938 Z M 767.808594 792.203125 C 779.109375 789.367188 794.101562 783.082031 798.589844 779.234375 C 790.550781 770.019531 783.1875 760.210938 774.25 751.421875 C 768.582031 768.960938 766.34375 783.289062 767.808594 792.203125 Z M 776.527344 733.144531 C 779.019531 731.898438 781.019531 731.171875 782.683594 730.03125 C 791.933594 723.542969 801.140625 716.984375 810.296875 710.367188 C 818.546875 704.386719 818.515625 704.320312 812.214844 696.039062 C 811.832031 695.542969 811.042969 695.355469 809.941406 694.738281 C 800.691406 700.710938 791.171875 706.785156 781.765625 713.015625 C 780.398438 713.917969 778.828125 715.429688 778.539062 716.886719 C 777.511719 721.957031 776.203125 727.078125 776.515625 733.144531 Z M 668.960938 670.859375 C 680.441406 670.859375 691.386719 670.859375 702.332031 670.859375 C 703.046875 670.894531 703.746094 670.800781 704.421875 670.570312 C 705.757812 670.015625 707.070312 669.113281 706.417969 667.457031 C 705.121094 664.191406 703.6875 660.972656 702.113281 657.832031 C 701.890625 657.347656 701.601562 656.902344 701.25 656.5 C 700.898438 656.097656 700.496094 655.753906 700.042969 655.46875 C 699.589844 655.183594 699.105469 654.964844 698.59375 654.820312 C 698.078125 654.675781 697.550781 654.605469 697.015625 654.613281 C 689.941406 654.539062 682.867188 654.414062 675.789062 654.355469 C 673.371094 654.355469 671.859375 655.523438 671.429688 658 C 670.644531 662.113281 669.828125 666.25 668.949219 670.832031 Z M 680.398438 615.730469 C 679.601562 617.542969 678.835938 618.746094 678.53125 620.09375 C 677.054688 626.621094 675.691406 633.171875 674.320312 639.726562 C 674.023438 641.105469 673.816406 642.5 673.695312 643.90625 C 673.570312 645.5 674.414062 646.914062 675.894531 647.019531 C 682.777344 647.410156 689.703125 648.738281 697.074219 646.945312 C 696.351562 644.453125 696.050781 642.304688 695.160156 640.46875 C 692.257812 634.457031 689.300781 628.457031 686.03125 622.632812 C 684.742188 620.210938 682.558594 618.296875 680.398438 615.730469 Z M 866.082031 650.257812 C 861.832031 654.445312 859.515625 657.058594 856.863281 659.273438 C 851.71875 663.570312 846.367188 667.617188 841.132812 671.808594 C 835.367188 676.425781 829.660156 681.109375 823.886719 685.71875 C 822.273438 687.007812 820.535156 688.136719 818.429688 689.644531 C 820.191406 692.644531 821.667969 695.417969 823.414062 697.976562 C 823.824219 698.601562 825.660156 699.003906 826.148438 698.601562 C 829.824219 695.722656 835.570312 694.933594 835.859375 688.511719 C 835.933594 686.640625 837.503906 684.648438 838.867188 683.140625 C 842.167969 679.484375 845.8125 676.140625 849.199219 672.550781 C 853.804688 667.691406 858.40625 662.816406 862.773438 657.738281 C 864.019531 656.355469 864.40625 654.21875 866.082031 650.269531 Z M 704.386719 551.351562 C 703.453125 551.523438 702.65625 551.457031 702.144531 551.8125 C 698.800781 554.097656 695.527344 556.117188 692.003906 552.066406 C 691.445312 551.816406 690.914062 551.855469 690.402344 552.191406 C 688.421875 554.203125 685.984375 553.855469 683.511719 553.898438 C 680.101562 553.960938 679.253906 555.195312 679.695312 558.296875 C 680.597656 564.660156 685.050781 568.597656 689.136719 573.1875 C 693.117188 570.902344 696.847656 568.964844 700.351562 566.65625 C 701.816406 565.65625 702.855469 564.324219 703.464844 562.65625 C 704.636719 559.050781 705.4375 555.242188 704.386719 551.351562 Z M 626.5625 537.15625 C 623.535156 552.339844 623.953125 566.429688 622.761719 580.425781 C 622.710938 580.789062 622.785156 581.121094 622.980469 581.429688 C 623.390625 581.914062 623.902344 582.589844 624.425781 582.636719 C 625.121094 582.601562 625.652344 582.285156 626.019531 581.691406 C 629.460938 573.59375 632.871094 565.496094 636.179688 557.367188 C 637.925781 553.070312 637.308594 549.109375 634.070312 545.625 C 631.933594 543.328125 629.890625 540.9375 626.5625 537.15625 Z M 808.886719 964.804688 C 809.511719 964.660156 809.957031 964.695312 810.132812 964.492188 C 811.378906 963.246094 812.542969 962 813.707031 960.703125 C 823.675781 949.648438 821.949219 950.191406 811.21875 945.007812 C 808.226562 943.5625 805.542969 941.269531 801.292969 941.445312 C 802.273438 949.734375 804.804688 957.519531 808.886719 964.804688 Z M 702.144531 575.019531 C 698.03125 577.21875 694.988281 578.714844 692.109375 580.488281 C 691.707031 580.828125 691.398438 581.234375 691.179688 581.710938 C 690.960938 582.1875 690.855469 582.6875 690.863281 583.210938 C 691.394531 591.578125 691.933594 599.960938 695.683594 609.371094 C 698.152344 597.34375 700.457031 586.917969 702.144531 575.019531 Z M 655.855469 546.679688 C 652.886719 547.851562 650.300781 548.585938 648.039062 549.886719 C 647.167969 550.386719 646.402344 552.292969 646.636719 553.3125 C 647.597656 557.394531 650.695312 560.371094 656.113281 562.972656 C 656.410156 557.710938 656.859375 552.597656 655.839844 546.679688 Z M 602.707031 593.109375 C 606.8125 595.679688 609.160156 597.171875 611.515625 598.621094 C 612.410156 599.175781 613.328125 599.710938 614.265625 600.179688 C 616.492188 601.300781 618.035156 600.597656 619.132812 598 C 619.414062 597.355469 619.648438 596.699219 619.84375 596.023438 C 620.820312 592.503906 619.21875 590.199219 615.769531 590.65625 C 611.949219 591.160156 608.207031 592.0625 602.6875 593.109375 Z M 641.15625 654.582031 C 648.25 658.167969 654.074219 659.980469 660.222656 660.628906 C 660.984375 660.710938 662.308594 659.109375 662.714844 658.042969 C 663.394531 656.246094 662.785156 654.308594 660.660156 654.113281 C 654.753906 653.554688 648.835938 653.261719 641.136719 654.582031 Z M 641.15625 654.582031 " fill-opacity="1" fill-rule="nonzero"/></g><g clip-path="url(#0ba314953c)"><g clip-path="url(#7fdf7db3f9)"><g clip-path="url(#00c4bb7c03)"><path fill="#ffffff" d="M 951.136719 673.472656 C 950.632812 673.136719 950.097656 672.847656 949.539062 672.613281 C 948.976562 672.378906 948.398438 672.199219 947.800781 672.078125 C 947.203125 671.960938 946.601562 671.898438 945.992188 671.894531 C 945.382812 671.894531 944.78125 671.953125 944.183594 672.066406 C 943.585938 672.183594 943.007812 672.359375 942.445312 672.589844 C 941.878906 672.820312 941.347656 673.105469 940.839844 673.441406 C 940.332031 673.777344 939.863281 674.160156 939.429688 674.589844 C 939 675.019531 938.613281 675.484375 938.273438 675.988281 C 937.933594 676.496094 937.644531 677.027344 937.410156 677.589844 C 937.175781 678.152344 937 678.730469 936.878906 679.324219 C 936.757812 679.921875 936.695312 680.523438 936.695312 681.132812 C 936.691406 681.742188 936.75 682.34375 936.867188 682.941406 C 936.984375 683.539062 937.15625 684.121094 937.386719 684.683594 C 937.621094 685.246094 937.902344 685.78125 938.238281 686.289062 C 938.578125 686.792969 938.957031 687.265625 939.386719 687.695312 C 939.816406 688.128906 940.285156 688.511719 940.789062 688.851562 C 942.488281 690.003906 944.128906 691.230469 945.707031 692.542969 C 947.289062 693.851562 948.800781 695.234375 950.242188 696.695312 C 951.6875 698.152344 953.058594 699.675781 954.351562 701.269531 C 955.644531 702.863281 956.859375 704.511719 957.992188 706.226562 C 959.125 707.9375 960.171875 709.699219 961.128906 711.511719 C 962.089844 713.328125 962.957031 715.183594 963.738281 717.082031 C 964.515625 718.980469 965.195312 720.914062 965.785156 722.878906 C 966.375 724.84375 966.863281 726.835938 967.257812 728.847656 C 967.652344 730.863281 967.945312 732.890625 968.140625 734.933594 C 968.332031 736.976562 968.429688 739.023438 968.421875 741.078125 C 968.414062 743.128906 968.308594 745.175781 968.101562 747.21875 C 967.894531 749.257812 967.589844 751.285156 967.183594 753.296875 C 966.777344 755.308594 966.273438 757.296875 965.675781 759.257812 C 965.074219 761.222656 964.378906 763.148438 963.589844 765.042969 C 962.800781 766.9375 961.917969 768.789062 960.949219 770.597656 C 959.976562 772.40625 958.921875 774.160156 957.777344 775.863281 C 957.4375 776.371094 957.148438 776.90625 956.914062 777.46875 C 956.679688 778.03125 956.5 778.609375 956.378906 779.207031 C 956.261719 779.804688 956.199219 780.40625 956.195312 781.019531 C 956.195312 781.628906 956.253906 782.230469 956.367188 782.828125 C 956.484375 783.429688 956.660156 784.007812 956.890625 784.574219 C 957.125 785.136719 957.40625 785.671875 957.746094 786.179688 C 958.082031 786.6875 958.464844 787.160156 958.894531 787.589844 C 959.324219 788.023438 959.792969 788.410156 960.296875 788.75 C 960.804688 789.089844 961.335938 789.378906 961.898438 789.613281 C 962.460938 789.847656 963.042969 790.027344 963.640625 790.148438 C 964.238281 790.269531 964.839844 790.332031 965.449219 790.332031 C 966.058594 790.335938 966.664062 790.277344 967.261719 790.160156 C 967.859375 790.042969 968.441406 789.867188 969.003906 789.636719 C 969.570312 789.40625 970.105469 789.121094 970.613281 788.785156 C 971.121094 788.449219 971.589844 788.0625 972.023438 787.632812 C 972.457031 787.203125 972.84375 786.738281 973.183594 786.230469 C 973.921875 785.128906 974.636719 784.007812 975.320312 782.867188 C 976.007812 781.730469 976.664062 780.574219 977.292969 779.402344 C 977.921875 778.230469 978.519531 777.046875 979.089844 775.847656 C 979.660156 774.644531 980.203125 773.433594 980.714844 772.207031 C 981.226562 770.980469 981.707031 769.742188 982.15625 768.488281 C 982.605469 767.238281 983.027344 765.980469 983.414062 764.707031 C 983.804688 763.4375 984.160156 762.15625 984.488281 760.871094 C 984.8125 759.582031 985.105469 758.285156 985.371094 756.984375 C 985.632812 755.679688 985.863281 754.371094 986.0625 753.058594 C 986.257812 751.742188 986.425781 750.425781 986.558594 749.101562 C 986.691406 747.78125 986.792969 746.457031 986.863281 745.128906 C 986.933594 743.800781 986.96875 742.472656 986.972656 741.144531 C 986.976562 739.816406 986.945312 738.488281 986.886719 737.160156 C 986.824219 735.832031 986.730469 734.507812 986.605469 733.183594 C 986.476562 731.859375 986.320312 730.542969 986.128906 729.226562 C 985.9375 727.910156 985.714844 726.601562 985.460938 725.296875 C 985.207031 723.992188 984.917969 722.695312 984.601562 721.40625 C 984.28125 720.113281 983.929688 718.832031 983.550781 717.558594 C 983.167969 716.289062 982.757812 715.023438 982.3125 713.769531 C 981.871094 712.519531 981.394531 711.277344 980.890625 710.046875 C 980.386719 708.816406 979.855469 707.601562 979.289062 706.398438 C 978.726562 705.195312 978.132812 704.003906 977.511719 702.832031 C 976.890625 701.65625 976.238281 700.496094 975.5625 699.355469 C 974.882812 698.210938 974.175781 697.085938 973.441406 695.980469 C 972.707031 694.871094 971.949219 693.78125 971.160156 692.710938 C 970.371094 691.640625 969.558594 690.589844 968.722656 689.558594 C 967.882812 688.527344 967.019531 687.519531 966.128906 686.53125 C 965.242188 685.539062 964.332031 684.574219 963.394531 683.628906 C 962.460938 682.6875 961.5 681.765625 960.519531 680.871094 C 959.539062 679.972656 958.539062 679.101562 957.515625 678.253906 C 956.492188 677.40625 955.449219 676.582031 954.382812 675.785156 C 953.320312 674.988281 952.238281 674.21875 951.136719 673.472656 Z M 951.136719 673.472656 " fill-opacity="1" fill-rule="nonzero"/></g></g></g><g clip-path="url(#f5a4e75e8b)"><g clip-path="url(#14887e40cf)"><g clip-path="url(#a6bd2fe780)"><path fill="#ffffff" d="M 979.957031 630.644531 C 979.453125 630.304688 978.917969 630.019531 978.355469 629.785156 C 977.796875 629.550781 977.214844 629.371094 976.621094 629.25 C 976.023438 629.128906 975.421875 629.070312 974.8125 629.066406 C 974.203125 629.066406 973.601562 629.121094 973.003906 629.238281 C 972.40625 629.355469 971.828125 629.53125 971.261719 629.761719 C 970.699219 629.992188 970.164062 630.277344 969.660156 630.613281 C 969.152344 630.949219 968.683594 631.332031 968.25 631.761719 C 967.816406 632.191406 967.433594 632.65625 967.09375 633.160156 C 966.753906 633.667969 966.464844 634.199219 966.230469 634.761719 C 965.996094 635.320312 965.820312 635.902344 965.699219 636.496094 C 965.578125 637.09375 965.515625 637.695312 965.515625 638.304688 C 965.511719 638.914062 965.570312 639.515625 965.6875 640.113281 C 965.804688 640.710938 965.976562 641.292969 966.207031 641.855469 C 966.4375 642.417969 966.722656 642.953125 967.058594 643.460938 C 967.394531 643.964844 967.777344 644.4375 968.207031 644.867188 C 968.636719 645.300781 969.101562 645.683594 969.609375 646.023438 C 971.15625 647.070312 972.679688 648.152344 974.175781 649.273438 C 975.675781 650.394531 977.140625 651.550781 978.582031 652.746094 C 980.023438 653.9375 981.433594 655.164062 982.8125 656.425781 C 984.191406 657.6875 985.539062 658.984375 986.855469 660.3125 C 988.171875 661.640625 989.453125 663 990.703125 664.390625 C 991.953125 665.78125 993.167969 667.203125 994.347656 668.652344 C 995.527344 670.101562 996.671875 671.582031 997.78125 673.085938 C 998.886719 674.59375 999.957031 676.125 1000.988281 677.683594 C 1002.023438 679.246094 1003.015625 680.828125 1003.96875 682.433594 C 1004.925781 684.042969 1005.839844 685.671875 1006.714844 687.324219 C 1007.589844 688.976562 1008.421875 690.652344 1009.214844 692.34375 C 1010.007812 694.039062 1010.757812 695.75 1011.464844 697.480469 C 1012.175781 699.210938 1012.839844 700.957031 1013.464844 702.71875 C 1014.085938 704.480469 1014.667969 706.257812 1015.203125 708.050781 C 1015.738281 709.84375 1016.230469 711.644531 1016.679688 713.460938 C 1017.125 715.277344 1017.527344 717.101562 1017.886719 718.9375 C 1018.246094 720.773438 1018.558594 722.613281 1018.824219 724.464844 C 1019.09375 726.316406 1019.316406 728.171875 1019.492188 730.03125 C 1019.667969 731.894531 1019.796875 733.757812 1019.882812 735.625 C 1019.96875 737.496094 1020.007812 739.363281 1020.003906 741.234375 C 1019.996094 743.101562 1019.945312 744.972656 1019.84375 746.839844 C 1019.746094 748.707031 1019.605469 750.570312 1019.414062 752.429688 C 1019.226562 754.289062 1018.988281 756.144531 1018.710938 757.992188 C 1018.429688 759.839844 1018.105469 761.679688 1017.734375 763.515625 C 1017.363281 765.347656 1016.945312 767.167969 1016.488281 768.980469 C 1016.027344 770.792969 1015.523438 772.59375 1014.976562 774.382812 C 1014.425781 776.167969 1013.835938 777.941406 1013.199219 779.699219 C 1012.5625 781.457031 1011.886719 783.199219 1011.164062 784.925781 C 1010.445312 786.652344 1009.683594 788.359375 1008.878906 790.046875 C 1008.074219 791.734375 1007.230469 793.402344 1006.34375 795.046875 C 1005.457031 796.695312 1004.53125 798.316406 1003.566406 799.917969 C 1002.601562 801.519531 1001.59375 803.097656 1000.550781 804.648438 C 1000.210938 805.15625 999.921875 805.691406 999.6875 806.257812 C 999.449219 806.820312 999.273438 807.402344 999.152344 808.003906 C 999.027344 808.601562 998.96875 809.207031 998.964844 809.820312 C 998.964844 810.429688 999.019531 811.035156 999.140625 811.636719 C 999.257812 812.238281 999.429688 812.820312 999.664062 813.386719 C 999.894531 813.953125 1000.179688 814.492188 1000.519531 815 C 1000.855469 815.511719 1001.242188 815.980469 1001.671875 816.414062 C 1002.105469 816.851562 1002.574219 817.238281 1003.082031 817.578125 C 1003.589844 817.921875 1004.125 818.210938 1004.6875 818.445312 C 1005.253906 818.679688 1005.835938 818.859375 1006.433594 818.980469 C 1007.035156 819.101562 1007.640625 819.164062 1008.25 819.167969 C 1008.863281 819.167969 1009.46875 819.109375 1010.070312 818.992188 C 1010.671875 818.875 1011.253906 818.699219 1011.820312 818.46875 C 1012.386719 818.234375 1012.921875 817.949219 1013.433594 817.613281 C 1013.941406 817.273438 1014.414062 816.890625 1014.847656 816.457031 C 1015.28125 816.027344 1015.671875 815.558594 1016.011719 815.050781 C 1017.226562 813.246094 1018.394531 811.414062 1019.519531 809.550781 C 1020.640625 807.691406 1021.71875 805.804688 1022.75 803.890625 C 1023.78125 801.976562 1024.765625 800.035156 1025.703125 798.074219 C 1026.636719 796.109375 1027.527344 794.125 1028.363281 792.121094 C 1029.203125 790.113281 1029.992188 788.089844 1030.730469 786.042969 C 1031.46875 784 1032.160156 781.9375 1032.796875 779.859375 C 1033.433594 777.78125 1034.023438 775.6875 1034.558594 773.578125 C 1035.09375 771.472656 1035.574219 769.351562 1036.007812 767.222656 C 1036.4375 765.089844 1036.816406 762.949219 1037.140625 760.800781 C 1037.46875 758.648438 1037.742188 756.492188 1037.960938 754.332031 C 1038.183594 752.167969 1038.347656 750 1038.460938 747.828125 C 1038.578125 745.65625 1038.636719 743.484375 1038.644531 741.308594 C 1038.652344 739.136719 1038.605469 736.960938 1038.503906 734.789062 C 1038.40625 732.617188 1038.253906 730.449219 1038.046875 728.285156 C 1037.839844 726.121094 1037.582031 723.960938 1037.269531 721.808594 C 1036.957031 719.65625 1036.59375 717.515625 1036.175781 715.382812 C 1035.757812 713.246094 1035.289062 711.125 1034.765625 709.015625 C 1034.246094 706.902344 1033.671875 704.804688 1033.046875 702.722656 C 1032.425781 700.640625 1031.75 698.574219 1031.023438 696.523438 C 1030.296875 694.476562 1029.523438 692.445312 1028.695312 690.433594 C 1027.871094 688.421875 1026.996094 686.429688 1026.074219 684.460938 C 1025.148438 682.492188 1024.179688 680.546875 1023.160156 678.628906 C 1022.140625 676.707031 1021.074219 674.8125 1019.964844 672.941406 C 1018.851562 671.074219 1017.695312 669.234375 1016.492188 667.421875 C 1015.292969 665.609375 1014.046875 663.828125 1012.753906 662.078125 C 1011.464844 660.328125 1010.132812 658.609375 1008.761719 656.925781 C 1007.386719 655.238281 1005.972656 653.589844 1004.515625 651.972656 C 1003.0625 650.355469 1001.566406 648.777344 1000.035156 647.234375 C 998.503906 645.691406 996.933594 644.1875 995.328125 642.722656 C 993.722656 641.257812 992.078125 639.832031 990.402344 638.449219 C 988.726562 637.0625 987.019531 635.71875 985.277344 634.417969 C 983.535156 633.117188 981.761719 631.859375 979.957031 630.644531 Z M 979.957031 630.644531 " fill-opacity="1" fill-rule="nonzero"/></g></g></g><g clip-path="url(#e9db23ad56)"><g clip-path="url(#8e340b3a6c)"><g clip-path="url(#3a63ee55f7)"><path fill="#ffffff" d="M 1008.667969 587.980469 C 1008.164062 587.640625 1007.628906 587.351562 1007.066406 587.117188 C 1006.507812 586.882812 1005.925781 586.703125 1005.332031 586.585938 C 1004.734375 586.464844 1004.132812 586.402344 1003.523438 586.398438 C 1002.914062 586.398438 1002.3125 586.457031 1001.714844 586.574219 C 1001.117188 586.6875 1000.539062 586.863281 999.972656 587.09375 C 999.410156 587.324219 998.875 587.609375 998.371094 587.945312 C 997.863281 588.28125 997.394531 588.664062 996.960938 589.09375 C 996.53125 589.523438 996.144531 589.988281 995.804688 590.496094 C 995.464844 591 995.175781 591.53125 994.941406 592.09375 C 994.707031 592.65625 994.53125 593.234375 994.410156 593.832031 C 994.289062 594.425781 994.226562 595.03125 994.226562 595.636719 C 994.222656 596.246094 994.28125 596.847656 994.398438 597.445312 C 994.515625 598.042969 994.6875 598.625 994.917969 599.1875 C 995.148438 599.75 995.433594 600.285156 995.769531 600.792969 C 996.105469 601.300781 996.488281 601.769531 996.917969 602.199219 C 997.347656 602.632812 997.8125 603.019531 998.320312 603.359375 C 1000.566406 604.875 1002.777344 606.445312 1004.945312 608.070312 C 1007.117188 609.695312 1009.246094 611.375 1011.335938 613.101562 C 1013.421875 614.832031 1015.46875 616.613281 1017.46875 618.441406 C 1019.472656 620.273438 1021.425781 622.148438 1023.335938 624.074219 C 1025.246094 626 1027.105469 627.972656 1028.917969 629.988281 C 1030.730469 632.007812 1032.492188 634.066406 1034.203125 636.167969 C 1035.917969 638.273438 1037.574219 640.417969 1039.183594 642.601562 C 1040.789062 644.785156 1042.339844 647.007812 1043.839844 649.269531 C 1045.335938 651.527344 1046.777344 653.824219 1048.164062 656.15625 C 1049.546875 658.488281 1050.875 660.851562 1052.144531 663.246094 C 1053.414062 665.644531 1054.621094 668.070312 1055.773438 670.527344 C 1056.921875 672.980469 1058.011719 675.464844 1059.042969 677.972656 C 1060.070312 680.480469 1061.035156 683.015625 1061.941406 685.570312 C 1062.847656 688.125 1063.6875 690.703125 1064.464844 693.300781 C 1065.242188 695.898438 1065.957031 698.515625 1066.609375 701.148438 C 1067.257812 703.78125 1067.84375 706.425781 1068.363281 709.085938 C 1068.882812 711.75 1069.339844 714.421875 1069.726562 717.105469 C 1070.117188 719.789062 1070.441406 722.480469 1070.699219 725.179688 C 1070.957031 727.878906 1071.148438 730.582031 1071.273438 733.292969 C 1071.398438 736 1071.457031 738.710938 1071.449219 741.421875 C 1071.441406 744.132812 1071.367188 746.84375 1071.226562 749.550781 C 1071.082031 752.261719 1070.875 754.964844 1070.605469 757.660156 C 1070.332031 760.359375 1069.992188 763.046875 1069.585938 765.730469 C 1069.179688 768.410156 1068.710938 771.082031 1068.175781 773.738281 C 1067.640625 776.398438 1067.039062 779.039062 1066.375 781.667969 C 1065.707031 784.296875 1064.976562 786.910156 1064.183594 789.503906 C 1063.390625 792.09375 1062.535156 794.667969 1061.617188 797.21875 C 1060.695312 799.769531 1059.714844 802.296875 1058.671875 804.800781 C 1057.628906 807.300781 1056.523438 809.777344 1055.359375 812.226562 C 1054.195312 814.675781 1052.96875 817.09375 1051.6875 819.484375 C 1050.402344 821.871094 1049.0625 824.226562 1047.664062 826.550781 C 1046.265625 828.875 1044.8125 831.160156 1043.300781 833.414062 C 1042.960938 833.917969 1042.671875 834.453125 1042.4375 835.015625 C 1042.203125 835.578125 1042.023438 836.160156 1041.902344 836.753906 C 1041.78125 837.351562 1041.722656 837.957031 1041.71875 838.566406 C 1041.71875 839.175781 1041.773438 839.78125 1041.890625 840.378906 C 1042.007812 840.976562 1042.183594 841.558594 1042.414062 842.121094 C 1042.644531 842.683594 1042.929688 843.222656 1043.265625 843.730469 C 1043.605469 844.238281 1043.988281 844.707031 1044.417969 845.140625 C 1044.847656 845.574219 1045.3125 845.960938 1045.820312 846.300781 C 1046.324219 846.640625 1046.859375 846.925781 1047.421875 847.164062 C 1047.984375 847.398438 1048.566406 847.574219 1049.160156 847.695312 C 1049.757812 847.816406 1050.363281 847.878906 1050.972656 847.878906 C 1051.582031 847.882812 1052.1875 847.824219 1052.785156 847.707031 C 1053.382812 847.589844 1053.964844 847.417969 1054.527344 847.1875 C 1055.09375 846.953125 1055.628906 846.671875 1056.136719 846.332031 C 1056.644531 845.996094 1057.113281 845.613281 1057.546875 845.183594 C 1057.980469 844.753906 1058.367188 844.285156 1058.707031 843.78125 C 1060.382812 841.273438 1061.996094 838.730469 1063.550781 836.148438 C 1065.101562 833.5625 1066.589844 830.941406 1068.015625 828.285156 C 1069.441406 825.628906 1070.800781 822.9375 1072.089844 820.214844 C 1073.382812 817.492188 1074.609375 814.738281 1075.765625 811.957031 C 1076.925781 809.171875 1078.015625 806.363281 1079.035156 803.527344 C 1080.054688 800.691406 1081.003906 797.828125 1081.886719 794.945312 C 1082.765625 792.0625 1083.574219 789.160156 1084.3125 786.238281 C 1085.050781 783.316406 1085.71875 780.375 1086.3125 777.421875 C 1086.90625 774.464844 1087.425781 771.496094 1087.875 768.515625 C 1088.324219 765.535156 1088.699219 762.546875 1089.003906 759.546875 C 1089.304688 756.546875 1089.535156 753.542969 1089.691406 750.53125 C 1089.847656 747.519531 1089.925781 744.507812 1089.9375 741.492188 C 1089.945312 738.480469 1089.878906 735.464844 1089.738281 732.453125 C 1089.597656 729.445312 1089.386719 726.4375 1089.097656 723.4375 C 1088.8125 720.4375 1088.453125 717.445312 1088.019531 714.460938 C 1087.585938 711.476562 1087.078125 708.507812 1086.5 705.546875 C 1085.921875 702.589844 1085.269531 699.648438 1084.546875 696.722656 C 1083.824219 693.792969 1083.03125 690.886719 1082.167969 688 C 1081.300781 685.113281 1080.367188 682.246094 1079.359375 679.40625 C 1078.355469 676.5625 1077.28125 673.746094 1076.136719 670.957031 C 1074.996094 668.167969 1073.785156 665.410156 1072.503906 662.679688 C 1071.226562 659.949219 1069.882812 657.25 1068.472656 654.585938 C 1067.0625 651.921875 1065.585938 649.296875 1064.046875 646.703125 C 1062.507812 644.109375 1060.90625 641.558594 1059.242188 639.042969 C 1057.578125 636.53125 1055.855469 634.058594 1054.070312 631.628906 C 1052.285156 629.203125 1050.441406 626.816406 1048.539062 624.480469 C 1046.636719 622.140625 1044.679688 619.847656 1042.664062 617.605469 C 1040.652344 615.363281 1038.585938 613.171875 1036.464844 611.027344 C 1034.339844 608.886719 1032.167969 606.796875 1029.945312 604.761719 C 1027.722656 602.726562 1025.449219 600.746094 1023.128906 598.824219 C 1020.808594 596.898438 1018.441406 595.03125 1016.03125 593.222656 C 1013.621094 591.414062 1011.164062 589.667969 1008.667969 587.980469 Z M 1008.667969 587.980469 " fill-opacity="1" fill-rule="nonzero"/></g></g></g></svg>