<svg width="13" height="11" viewBox="0 0 13 11" fill="none" xmlns="http://www.w3.org/2000/svg">
<path d="M1.9669 2.07179C2.53912 2.07179 3.00272 1.60782 3.00272 1.03601C3.00272 0.463569 2.53912 0 1.9669 0C1.39448 0 0.930908 0.463569 0.930908 1.03601C0.930883 1.60785 1.39448 2.07179 1.9669 2.07179Z" fill="black"/>
<path d="M6.3954 4.81785V4.8194C6.39793 4.8194 6.40023 4.81863 6.40276 4.81863C6.40528 4.81863 6.40761 4.8194 6.41011 4.8194V4.81785C6.79935 4.80992 7.11246 4.49332 7.11246 4.10253C7.11246 3.71117 6.79933 3.39476 6.41011 3.3868V3.38525C6.40761 3.38525 6.40528 3.38603 6.40276 3.38603C6.40023 3.38603 6.39793 3.38525 6.3954 3.38525V3.3868C6.00616 3.39476 5.69305 3.71117 5.69305 4.10253C5.69305 4.49329 6.00616 4.8099 6.3954 4.81785Z" fill="black"/>
<path d="M10.8386 2.07179C11.411 2.07179 11.8746 1.60782 11.8746 1.03601C11.8746 0.463569 11.411 0 10.8386 0C10.2664 0 9.8028 0.463569 9.8028 1.03601C9.8028 1.60785 10.2664 2.07179 10.8386 2.07179Z" fill="black"/>
<path d="M12.8055 7.09244V3.61069C12.8055 3.10858 12.2594 2.5625 11.7574 2.5625H11.6124L10.8917 3.28325L10.186 2.57761C9.73983 2.64286 9.34654 2.91937 9.1376 3.32837L8.2999 5.77857C8.27103 5.83472 8.21741 5.87461 8.15503 5.88564C8.09268 5.89669 8.02878 5.87789 7.98211 5.83472L7.46101 5.38353C7.30514 5.23924 7.10063 5.15909 6.88822 5.15909H6.40273H5.91728C5.70484 5.15909 5.50035 5.23927 5.34446 5.38353L4.82336 5.83472C4.77669 5.87789 4.71276 5.89669 4.65044 5.88564C4.58806 5.87458 4.53444 5.83472 4.50557 5.77857L3.66787 3.32837C3.42776 2.8584 2.94441 2.5625 2.41653 2.5625H1.95624H1.04802C0.546083 2.5625 0 3.10858 0 3.61069V7.09242C0 7.3434 0.203337 7.54691 0.454319 7.54691C0.577847 7.54691 0.454319 7.54691 0.771505 7.54691L0.944228 10.5162C0.944228 10.7833 1.16092 10.9998 1.42796 10.9998C1.54066 10.9998 1.74845 10.9998 1.95624 10.9998C2.164 10.9998 2.37179 10.9998 2.48449 10.9998C2.75153 10.9998 2.96822 10.7833 2.96822 10.5162L3.14094 7.54691L3.13879 5.4269C3.13879 5.39341 3.16165 5.36455 3.19436 5.35642C3.2271 5.34866 3.26059 5.36415 3.2759 5.39398L3.94051 7.02969C4.02067 7.18616 4.16941 7.29615 4.34253 7.32697C4.51563 7.35773 4.6932 7.30586 4.82238 7.18656L5.45831 6.71814C5.47962 6.69858 5.5104 6.69355 5.53674 6.70458C5.56328 6.71639 5.58031 6.74255 5.58031 6.77118L5.58266 8.60965L5.70214 10.6652C5.70214 10.8499 5.8522 10.9998 6.03715 10.9998C6.11499 10.9998 6.25887 10.9998 6.40276 10.9998C6.54665 10.9998 6.69053 10.9998 6.76837 10.9998C6.95329 10.9998 7.10336 10.8499 7.10336 10.6652L7.22284 8.60965L7.22516 6.77118C7.22516 6.74252 7.24219 6.71636 7.26873 6.70458C7.29507 6.69353 7.32585 6.69858 7.34716 6.71814L7.98309 7.18656C8.11224 7.30586 8.28982 7.35773 8.46297 7.32697C8.63606 7.29618 8.7848 7.18618 8.86496 7.02969L9.52955 5.39398C9.54485 5.36417 9.57834 5.34866 9.61108 5.35642C9.64379 5.36455 9.66665 5.39341 9.66665 5.4269L9.66588 6.23553L8.96856 8.40264C8.95207 8.45394 8.961 8.51009 8.99274 8.55368C9.0245 8.59725 9.07523 8.62301 9.12907 8.62301H9.72708L9.83725 10.5163C9.83725 10.7833 10.0539 10.9998 10.321 10.9998C10.4337 10.9998 10.6415 10.9998 10.8492 10.9998C11.057 10.9998 11.2648 10.9998 11.3775 10.9998C11.6445 10.9998 11.8612 10.7833 11.8612 10.5163L11.9714 8.62301H12.6321C12.686 8.62301 12.7367 8.59725 12.7685 8.55368C12.8002 8.51009 12.8091 8.45394 12.7927 8.40264L12.5078 7.5175C12.6813 7.45339 12.8055 7.28802 12.8055 7.09244ZM2.13651 3.07606V4.94164H1.5854V3.07606H2.13651Z" fill="black"/>
</svg>
