<svg width="15" height="15" viewBox="0 0 15 15" fill="none" xmlns="http://www.w3.org/2000/svg">
<circle cx="7.5" cy="7.5" r="7.5" fill="#3493FF"/>
<path d="M5.92152 11H9.07848C9.69382 11 10 10.7061 10 10.1241V7.58302H7.8478C7.4673 7.58302 7.28894 7.41231 7.28894 7.0541V5H5.92152C5.30916 5 5 5.29664 5 5.87873V10.1241C5 10.709 5.30916 11 5.92152 11ZM7.85672 7.19963H9.9673C9.9465 7.08488 9.86029 6.97294 9.72057 6.83582L8.07967 5.26585C7.94293 5.13153 7.81807 5.05038 7.69322 5.03078V7.04851C7.69322 7.14925 7.7497 7.19963 7.85672 7.19963ZM6.35553 8.79477C6.23365 8.79477 6.14744 8.71362 6.14744 8.60448C6.14744 8.49533 6.23365 8.41417 6.35553 8.41417H8.64745C8.76636 8.41417 8.8585 8.49533 8.8585 8.60448C8.8585 8.71362 8.76636 8.79477 8.64745 8.79477H6.35553ZM6.35553 9.861C6.23365 9.861 6.14744 9.77984 6.14744 9.67071C6.14744 9.56156 6.23365 9.48041 6.35553 9.48041H8.64745C8.76636 9.48041 8.8585 9.56156 8.8585 9.67071C8.8585 9.77984 8.76636 9.861 8.64745 9.861H6.35553Z" fill="white"/>
</svg>
