<svg width="27" height="25" viewBox="0 0 27 25" fill="none" xmlns="http://www.w3.org/2000/svg">
<path d="M27 24.0347V25H0V24.0366C-5.42194e-07 23.7888 0.0974687 23.5511 0.27102 23.3756C0.444571 23.2002 0.680029 23.1013 0.925725 23.1008H1.72672C1.72391 23.0694 1.72261 23.038 1.72282 23.0064V22.1355C1.72334 21.888 1.82104 21.6508 1.99453 21.4757C2.16803 21.3007 2.40319 21.2022 2.64855 21.2016H3.4476V14.0905H2.84929C2.56293 14.0905 2.28831 13.9758 2.08583 13.7715C1.88335 13.5672 1.7696 13.2902 1.7696 13.0013C1.7696 12.7125 1.88335 12.4354 2.08583 12.2312C2.28831 12.0269 2.56293 11.9122 2.84929 11.9122H24.215C24.5014 11.9122 24.776 12.0269 24.9785 12.2312C25.181 12.4354 25.2947 12.7125 25.2947 13.0013C25.2947 13.2902 25.181 13.5672 24.9785 13.7715C24.776 13.9758 24.5014 14.0905 24.215 14.0905H23.646V21.2016H24.3514C24.5968 21.2022 24.832 21.3007 25.0055 21.4757C25.179 21.6508 25.2767 21.888 25.2772 22.1355V23.0064C25.2773 23.038 25.2753 23.0695 25.2713 23.1008H26.0743C26.3196 23.1013 26.5548 23.1999 26.7283 23.3749C26.9018 23.5499 26.9995 23.7872 27 24.0347ZM23.6479 10.188C23.6479 7.48594 22.5839 4.89459 20.6899 2.98398C18.796 1.07337 16.2272 0 13.5487 0C10.8703 0 8.30149 1.07337 6.40753 2.98398C4.51356 4.89459 3.44955 7.48594 3.44955 10.188H23.6479ZM5.74145 21.2016H7.90277V15.1817C7.90277 14.8925 7.78892 14.6152 7.58625 14.4108C7.38359 14.2064 7.10872 14.0915 6.82211 14.0915C6.5355 14.0915 6.26063 14.2064 6.05797 14.4108C5.8553 14.6152 5.74145 14.8925 5.74145 15.1817V21.2016ZM10.2122 15.1994V21.2016H12.3735V15.1994C12.3735 14.9102 12.2597 14.6329 12.057 14.4285C11.8544 14.2241 11.5795 14.1092 11.2929 14.1092C11.0063 14.1092 10.7314 14.2241 10.5287 14.4285C10.3261 14.6329 10.2122 14.9102 10.2122 15.1994ZM14.683 15.2151V21.2016H16.8443V15.2151C16.8443 14.926 16.7304 14.6487 16.5278 14.4442C16.3251 14.2398 16.0503 14.1249 15.7636 14.1249C15.477 14.1249 15.2022 14.2398 14.9995 14.4442C14.7968 14.6487 14.683 14.926 14.683 15.2151ZM19.1537 15.2308V21.2016H21.3151V15.2308C21.3151 14.9417 21.2012 14.6644 20.9986 14.46C20.7959 14.2555 20.521 14.1406 20.2344 14.1406C19.9478 14.1406 19.6729 14.2555 19.4703 14.46C19.2676 14.6644 19.1537 14.9417 19.1537 15.2308Z" fill="#5BB936"/>
</svg>
