<svg width="10" height="9" viewBox="0 0 10 9" fill="none" xmlns="http://www.w3.org/2000/svg">
<path d="M3.4375 3.75C3.17859 3.75 2.96875 3.95984 2.96875 4.21875V4.53125C2.96875 4.79016 3.17859 5 3.4375 5C3.69641 5 3.90625 4.79016 3.90625 4.53125V4.21875C3.90625 3.95984 3.69641 3.75 3.4375 3.75Z" fill="#8E8E8E"/>
<path d="M3.4375 2.8125C2.40203 2.8125 1.5625 3.65203 1.5625 4.6875C1.5625 5.1675 1.74453 5.60422 2.04125 5.93578C2.24109 5.67594 2.65844 5.3125 3.4375 5.3125C3.00594 5.3125 2.65625 4.96281 2.65625 4.53125V4.21875C2.65625 3.78719 3.00594 3.4375 3.4375 3.4375C3.86906 3.4375 4.21875 3.78719 4.21875 4.21875V4.53125C4.21875 4.96281 3.86906 5.3125 3.4375 5.3125C4.21656 5.3125 4.63391 5.67594 4.83375 5.93578C5.13047 5.60422 5.3125 5.1675 5.3125 4.6875C5.3125 3.65203 4.47297 2.8125 3.4375 2.8125Z" fill="#8E8E8E"/>
<path d="M3.43751 5.625C2.75611 5.625 2.41517 5.95 2.26892 6.15219C2.58939 6.40844 2.99517 6.5625 3.43751 6.5625C3.87986 6.5625 4.28564 6.40844 4.60626 6.15219C4.46017 5.95031 4.11923 5.625 3.43751 5.625Z" fill="#8E8E8E"/>
<path d="M9.375 0.9375H8.125V0.15625C8.125 0.0698438 8.05516 0 7.96875 0H7.03125C6.94484 0 6.875 0.0698438 6.875 0.15625V0.9375H3.125V0.15625C3.125 0.0698438 3.05516 0 2.96875 0H2.03125C1.94484 0 1.875 0.0698438 1.875 0.15625V0.9375H0.625C0.279531 0.9375 0 1.21703 0 1.5625V7.8125C0 8.15797 0.279531 8.4375 0.625 8.4375H9.375C9.72047 8.4375 10 8.15797 10 7.8125V1.5625C10 1.21703 9.72047 0.9375 9.375 0.9375ZM7.1875 0.3125H7.8125V1.5625H7.1875V0.3125ZM6.40625 3.125H7.34375C7.43016 3.125 7.5 3.19484 7.5 3.28125C7.5 3.36766 7.43016 3.4375 7.34375 3.4375H6.40625C6.31984 3.4375 6.25 3.36766 6.25 3.28125C6.25 3.19484 6.31984 3.125 6.40625 3.125ZM2.1875 0.3125H2.8125V1.5625H2.1875V0.3125ZM3.4375 6.875C2.22953 6.875 1.25 5.89547 1.25 4.6875C1.25 3.47953 2.22953 2.5 3.4375 2.5C4.64547 2.5 5.625 3.47953 5.625 4.6875C5.625 5.89547 4.64547 6.875 3.4375 6.875ZM8.59375 6.25H6.40625C6.31984 6.25 6.25 6.18016 6.25 6.09375C6.25 6.00734 6.31984 5.9375 6.40625 5.9375H8.59375C8.68016 5.9375 8.75 6.00734 8.75 6.09375C8.75 6.18016 8.68016 6.25 8.59375 6.25ZM6.25 5.15625C6.25 5.06984 6.31984 5 6.40625 5H7.96875C8.05516 5 8.125 5.06984 8.125 5.15625C8.125 5.24266 8.05516 5.3125 7.96875 5.3125H6.40625C6.31984 5.3125 6.25 5.24266 6.25 5.15625ZM8.59375 4.375H6.40625C6.31984 4.375 6.25 4.30516 6.25 4.21875C6.25 4.13234 6.31984 4.0625 6.40625 4.0625H8.59375C8.68016 4.0625 8.75 4.13234 8.75 4.21875C8.75 4.30516 8.68016 4.375 8.59375 4.375Z" fill="#8E8E8E"/>
</svg>
