<svg width="31" height="26" viewBox="0 0 31 26" fill="none" xmlns="http://www.w3.org/2000/svg">
<path d="M14.2649 0H6.23658C3.67215 0 2.38348 1.30155 2.38348 3.89175V24.4845H9.34225V19.6521C9.34225 19.1237 9.7804 18.6856 10.3088 18.6856C10.8371 18.6856 11.2752 19.1108 11.2752 19.6521V24.4845H18.1051V3.89175C18.1051 1.30155 16.8294 0 14.2649 0ZM13.5304 12.5644H7.15153C6.62318 12.5644 6.18503 12.1263 6.18503 11.5979C6.18503 11.0696 6.62318 10.6314 7.15153 10.6314H13.5304C14.0587 10.6314 14.4969 11.0696 14.4969 11.5979C14.4969 12.1263 14.0587 12.5644 13.5304 12.5644ZM13.5304 7.73196H7.15153C6.62318 7.73196 6.18503 7.29382 6.18503 6.76546C6.18503 6.23711 6.62318 5.79897 7.15153 5.79897H13.5304C14.0587 5.79897 14.4969 6.23711 14.4969 6.76546C14.4969 7.29382 14.0587 7.73196 13.5304 7.73196Z" fill="#5249B0"/>
<path d="M29.317 23.5192H26.3917V19.6533C27.6159 19.2538 28.5051 18.1069 28.5051 16.7538V14.1764C28.5051 12.4883 27.1263 11.1094 25.4381 11.1094C23.75 11.1094 22.3711 12.4883 22.3711 14.1764V16.7538C22.3711 18.094 23.2474 19.228 24.4458 19.6404V23.5192H0.966494C0.438144 23.5192 0 23.9574 0 24.4857C0 25.0141 0.438144 25.4522 0.966494 25.4522H25.3608C25.3866 25.4522 25.3995 25.4651 25.4252 25.4651C25.451 25.4651 25.4639 25.4522 25.4897 25.4522H29.317C29.8453 25.4522 30.2835 25.0141 30.2835 24.4857C30.2835 23.9574 29.8453 23.5192 29.317 23.5192Z" fill="#5249B0"/>
</svg>
