<svg width="24" height="23" viewBox="0 0 24 23" fill="none" xmlns="http://www.w3.org/2000/svg">
<path d="M21.1494 4.5977H18.7586C17.6552 1.83908 14.9885 0 11.954 0C8.91954 0 6.25287 1.83908 5.14943 4.5977H2.75862C1.1954 4.5977 0 5.7931 0 7.35632V7.90805C0 11.1264 2.66667 13.7931 5.88506 13.7931H18.1149C21.3333 13.7931 24 11.1264 24 7.90805V7.35632C23.908 5.7931 22.7126 4.5977 21.1494 4.5977ZM11.954 1.83908C13.977 1.83908 15.7241 2.94253 16.7356 4.5977H7.17241C8.18391 2.94253 9.93103 1.83908 11.954 1.83908Z" fill="#52BC56"/>
<path d="M18.3908 15.6322V17.4713C18.3908 18.023 18.023 18.3908 17.4713 18.3908C16.9195 18.3908 16.5517 18.023 16.5517 17.4713V15.6322H7.35632V17.4713C7.35632 18.023 6.98851 18.3908 6.43678 18.3908C5.88506 18.3908 5.51724 18.023 5.51724 17.4713V15.6322C3.31034 15.5402 1.37931 14.5287 0 12.9655V19.3103C0 20.8736 1.1954 22.069 2.75862 22.069H21.1494C22.7126 22.069 23.908 20.8736 23.908 19.3103V12.9655C22.5287 14.5287 20.5977 15.5402 18.3908 15.6322Z" fill="#52BC56"/>
</svg>
