<svg width="23" height="22" viewBox="0 0 23 22" fill="none" xmlns="http://www.w3.org/2000/svg">
<path d="M6.40295 6.40283H15.8474" stroke="#777676" stroke-linecap="round" stroke-linejoin="round"/>
<path d="M6.40295 11.125H13.4863" stroke="#777676" stroke-linecap="round" stroke-linejoin="round"/>
<path d="M18.2083 0.5C19.1476 0.5 20.0485 0.873139 20.7127 1.53733C21.3769 2.20152 21.75 3.10236 21.75 4.04167V13.4861C21.75 14.4254 21.3769 15.3263 20.7127 15.9904C20.0485 16.6546 19.1476 17.0278 18.2083 17.0278H12.3056L6.40278 20.5694V17.0278H4.04167C3.10236 17.0278 2.20152 16.6546 1.53733 15.9904C0.873139 15.3263 0.5 14.4254 0.5 13.4861V4.04167C0.5 3.10236 0.873139 2.20152 1.53733 1.53733C2.20152 0.873139 3.10236 0.5 4.04167 0.5H18.2083Z" stroke="#777676" stroke-linecap="round" stroke-linejoin="round"/>
</svg>
