<svg width="13" height="13" viewBox="0 0 13 13" fill="none" xmlns="http://www.w3.org/2000/svg">
<circle cx="6.5" cy="6.5" r="6.5" fill="#FF3434"/>
<path d="M7.03168 6.5L8.89255 4.63913C8.96188 4.56838 9.00049 4.47313 8.99999 4.37407C8.99949 4.27502 8.95992 4.18016 8.88988 4.11012C8.81984 4.04008 8.72498 4.00051 8.62593 4C8.52687 3.9995 8.43162 4.03812 8.36087 4.10745L6.5 5.96832L4.63913 4.10745C4.56838 4.03812 4.47313 3.9995 4.37407 4C4.27502 4.00051 4.18016 4.04008 4.11012 4.11012C4.04008 4.18016 4.00051 4.27502 4 4.37407C3.9995 4.47313 4.03812 4.56838 4.10745 4.63913L5.96832 6.5L4.10745 8.36087C4.03812 8.43162 3.9995 8.52687 4 8.62593C4.00051 8.72498 4.04008 8.81984 4.11012 8.88988C4.18016 8.95992 4.27502 8.99949 4.37407 8.99999C4.47313 9.00049 4.56838 8.96188 4.63913 8.89255L6.5 7.03168L8.36087 8.89255C8.43162 8.96188 8.52687 9.00049 8.62593 8.99999C8.72498 8.99949 8.81984 8.95992 8.88988 8.88988C8.95992 8.81984 8.99949 8.72498 8.99999 8.62593C9.00049 8.52687 8.96188 8.43162 8.89255 8.36087L7.03168 6.5Z" fill="white"/>
</svg>
