<svg width="24" height="21" viewBox="0 0 24 21" fill="none" xmlns="http://www.w3.org/2000/svg">
<path d="M10.0008 19.6688C10.0003 20.1341 10.1166 20.592 10.3388 21H1.92042C1.41147 20.9988 0.923695 20.7946 0.563806 20.4321C0.203916 20.0697 0.00120085 19.5784 0 19.0658V16.1652C0.00359949 14.8841 0.5105 13.6565 1.40995 12.7506C2.3094 11.8446 3.52829 11.3341 4.8003 11.3305H13.1034C13.2792 11.9227 13.5658 12.4755 13.9477 12.9594C12.8441 13.1504 11.843 13.7278 11.1209 14.5897C10.3988 15.4516 10.0021 16.5427 10.0008 17.6705V19.6688ZM9.12012 9.8802C8.15003 9.8802 7.20172 9.59047 6.39511 9.04764C5.58851 8.50482 4.95984 7.73328 4.5886 6.8306C4.21736 5.92791 4.12022 4.93462 4.30948 3.97634C4.49874 3.01805 4.96588 2.13781 5.65184 1.44692C6.3378 0.756039 7.21177 0.28554 8.16323 0.0949248C9.11468 -0.09569 10.1009 0.00214061 10.9971 0.376045C11.8934 0.749949 12.6594 1.38313 13.1984 2.19553C13.7373 3.00792 14.025 3.96304 14.025 4.9401C14.025 6.2503 13.5082 7.50683 12.5884 8.43328C11.6686 9.35973 10.421 9.8802 9.12012 9.8802ZM24 19.6688C23.9988 20.0215 23.8592 20.3594 23.6116 20.6088C23.3639 20.8582 23.0285 20.9988 22.6783 21H12.7624C12.4122 20.9988 12.0768 20.8582 11.8291 20.6088C11.5815 20.3594 11.4419 20.0215 11.4407 19.6688V17.6705C11.4435 16.7887 11.7925 15.9438 12.4116 15.3203C13.0307 14.6968 13.8695 14.3453 14.745 14.3425H20.6942C21.5697 14.3453 22.4085 14.6968 23.0276 15.3203C23.6467 15.9438 23.9957 16.7887 23.9985 17.6705L24 19.6688ZM21.0974 9.94126C21.0974 10.614 20.8993 11.2716 20.5283 11.8309C20.1572 12.3903 19.6298 12.8262 19.0127 13.0836C18.3956 13.3411 17.7166 13.4084 17.0615 13.2772C16.4064 13.1459 15.8047 12.822 15.3324 12.3463C14.8601 11.8707 14.5385 11.2646 14.4082 10.6048C14.2779 9.94504 14.3448 9.26115 14.6004 8.63965C14.856 8.01815 15.2888 7.48694 15.8442 7.1132C16.3995 6.73947 17.0524 6.53998 17.7204 6.53998C18.616 6.53998 19.475 6.89833 20.1083 7.5362C20.7416 8.17406 21.0974 9.03919 21.0974 9.94126Z" fill="#41AA9B"/>
</svg>
