<svg width="21" height="27" viewBox="0 0 21 27" fill="none" xmlns="http://www.w3.org/2000/svg">
<path d="M3.87039 27H17.1296C19.7141 27 21 25.6777 21 23.0583V11.6236H11.9608C10.3627 11.6236 9.61353 10.8554 9.61353 9.24346V0H3.87039C1.29846 0 0 1.3349 0 3.9543V23.0583C0 25.6903 1.29846 27 3.87039 27ZM11.9982 9.89833H20.8627C20.7753 9.38198 20.4132 8.87824 19.8264 8.26119L12.9346 1.19633C12.3603 0.591905 11.8359 0.226693 11.3115 0.138519V9.21831C11.3115 9.67164 11.5487 9.89833 11.9982 9.89833ZM5.69323 17.0765C5.18131 17.0765 4.81923 16.7113 4.81923 16.2201C4.81923 15.729 5.18131 15.3638 5.69323 15.3638H15.3193C15.8187 15.3638 16.2057 15.729 16.2057 16.2201C16.2057 16.7113 15.8187 17.0765 15.3193 17.0765H5.69323ZM5.69323 21.8745C5.18131 21.8745 4.81923 21.5093 4.81923 21.0182C4.81923 20.527 5.18131 20.1618 5.69323 20.1618H15.3193C15.8187 20.1618 16.2057 20.527 16.2057 21.0182C16.2057 21.5093 15.8187 21.8745 15.3193 21.8745H5.69323Z" fill="#2F61BC"/>
</svg>
