<svg width="25" height="25" viewBox="0 0 25 25" fill="none" xmlns="http://www.w3.org/2000/svg">
<path fill-rule="evenodd" clip-rule="evenodd" d="M1.83059 1.83059C-1.49012e-07 3.66116 0 6.60744 0 12.5C0 18.3925 -1.49012e-07 21.3389 1.83059 23.1694C3.66116 25 6.60744 25 12.5 25C18.3925 25 21.3389 25 23.1694 23.1694C25 21.3389 25 18.3925 25 12.5C25 6.60744 25 3.66116 23.1694 1.83059C21.3389 -1.49012e-07 18.3925 0 12.5 0C6.60744 0 3.66116 -1.49012e-07 1.83059 1.83059ZM14.6875 10C14.6875 10.5177 15.1073 10.9375 15.625 10.9375H16.4866L13.971 13.4532C13.8489 13.5752 13.6511 13.5752 13.529 13.4532L11.5468 11.471C10.6925 10.6167 9.30748 10.6167 8.4532 11.471L5.58709 14.3371C5.22097 14.7032 5.22097 15.2968 5.58709 15.6629C5.9532 16.029 6.5468 16.029 6.91291 15.6629L9.77903 12.7968C9.90106 12.6748 10.0989 12.6748 10.221 12.7968L12.2032 14.779C13.0575 15.6333 14.4425 15.6333 15.2968 14.779L17.8125 12.2634V13.125C17.8125 13.6427 18.2323 14.0625 18.75 14.0625C19.2677 14.0625 19.6875 13.6427 19.6875 13.125V10C19.6875 9.48224 19.2677 9.0625 18.75 9.0625H15.625C15.1073 9.0625 14.6875 9.48224 14.6875 10Z" fill="#4A6CDD"/>
</svg>
