<svg width="20" height="23" viewBox="0 0 20 23" fill="none" xmlns="http://www.w3.org/2000/svg">
<path d="M18.3844 2.11687L10.3138 0.0124584C10.2246 -0.00415281 10.1332 -0.00415281 10.044 0.0124584C9.96949 0.000951666 9.89371 0.000951666 9.81919 0.0124584L1.7036 2.11687C1.18903 2.24829 0.73644 2.56159 0.425842 3.0014C0.115244 3.44121 -0.0333609 3.9792 0.00629637 4.52027L0.478395 10.8565C0.66747 13.37 1.52594 15.7825 2.96062 17.8321C4.3953 19.8816 6.35137 21.49 8.61647 22.4825L9.60563 22.9195C9.73028 22.9726 9.86399 23 9.99904 23C10.1341 23 10.2678 22.9726 10.3925 22.9195L11.3816 22.4825C13.6467 21.49 15.6028 19.8816 17.0375 17.8321C18.4721 15.7825 19.3306 13.37 19.5197 10.8565L19.9918 4.52027C20.0361 3.99144 19.9002 3.4632 19.6073 3.02515C19.3143 2.5871 18.8823 2.2662 18.3844 2.11687ZM14.2142 8.87859L9.71803 13.4784C9.61354 13.5862 9.48921 13.6717 9.35224 13.7301C9.21526 13.7885 9.06835 13.8186 8.91996 13.8186C8.77157 13.8186 8.62465 13.7885 8.48768 13.7301C8.3507 13.6717 8.22638 13.5862 8.12189 13.4784L5.8738 11.1785C5.66214 10.962 5.54323 10.6683 5.54323 10.362C5.54323 10.0558 5.66214 9.7621 5.8738 9.54556C6.08546 9.32902 6.37254 9.20737 6.67187 9.20737C6.97121 9.20737 7.25828 9.32902 7.46994 9.54556L8.91996 11.0405L12.6181 7.24566C12.8297 7.02912 13.1168 6.90747 13.4161 6.90747C13.7155 6.90747 14.0025 7.02912 14.2142 7.24566C14.4259 7.4622 14.5448 7.75589 14.5448 8.06212C14.5448 8.36836 14.4259 8.66205 14.2142 8.87859Z" fill="#41AA9B"/>
</svg>
